# xmcd
#
# Track frame offsets:
#	150
#	16691
#	33464
#	49064
#	64152
#	87552
#	103849
#	106901
#	121070
#	138658
#	154149
#	172942
#
# Disc length: 2451 seconds
# Revision: 0
# Processed by: cddbd v1.5.2PL0 Copyright (c) Steve Scherf et al.
# Submitted via: dBpowerAMP V12.0
#
DISCID=9909910c
DTITLE=Obstawa Prezydenta - Zawsze w stronę bluesa
DYEAR=2006
DGENRE=Blues
TTITLE0=Ciężki chleb
TTITLE1=Bez forsy i pracy
TTITLE2=Do twojego raju
TTITLE3=Niewolnik
TTITLE4=Dwie drogi
TTITLE5=Jedno ale
TTITLE6=Uwierz w to
TTITLE7=Stary, dobry rock and roll
TTITLE8=Jeszcze jedna noc bez Ciebie
TTITLE9=Tego trzeba nam
TTITLE10=Boom boom
TTITLE11=Wracam
EXTD=
EXTT0=
EXTT1=
EXTT2=
EXTT3=
EXTT4=
EXTT5=
EXTT6=
EXTT7=
EXTT8=
EXTT9=
EXTT10=
EXTT11=
PLAYORDER=
